<?xml version="1.0" standalone="no"?>
<!DOCTYPE svg PUBLIC "-//W3C//DTD SVG 20010904//EN"
 "http://www.w3.org/TR/2001/REC-SVG-20010904/DTD/svg10.dtd">
<svg version="1.0" xmlns="http://www.w3.org/2000/svg"
 width="1080.000000pt" height="1458.000000pt" viewBox="0 0 1080.000000 1458.000000"
 preserveAspectRatio="xMidYMid meet">

<g transform="translate(0.000000,1458.000000) scale(0.100000,-0.100000)"
fill="#000000" stroke="none">
<path d="M2275 14536 l-169 -41 -154 -208 -153 -208 16 -227 c10 -125 19 -229
22 -232 3 -3 3 78 -1 180 l-6 185 331 194 331 193 349 -233 350 -233 -6 -140
c-3 -78 -3 -136 -1 -131 5 11 36 414 36 468 0 28 -23 59 -160 215 -89 100
-164 182 -168 182 -4 0 -106 18 -227 40 -121 22 -220 40 -220 39 0 -1 -76 -20
-170 -43z"/>
<path d="M8023 14536 l-173 -42 -153 -208 -153 -208 19 -246 c10 -135 20 -248
22 -250 2 -2 19 1 36 7 26 9 36 8 45 -1 6 -7 64 -157 129 -333 l117 -320 111
-69 c62 -38 144 -89 183 -113 l72 -44 189 120 190 120 77 293 c76 289 78 294
118 335 34 34 45 40 60 32 10 -5 18 -8 18 -7 0 2 9 121 20 266 l19 263 -161
183 -161 183 -206 37 c-113 21 -215 39 -226 41 -11 2 -98 -15 -192 -39z"/>
<path d="M2193 14134 l-293 -176 0 -136 0 -136 68 67 c63 63 75 70 195 116
l128 49 98 -22 99 -23 99 28 98 28 133 -54 c89 -36 158 -72 209 -109 42 -31
78 -55 79 -53 0 1 4 37 7 80 l5 77 -314 220 c-174 121 -316 220 -317 219 -1 0
-134 -79 -294 -175z"/>
<path d="M2580 13854 l-85 -24 -101 21 -102 21 -113 -43 c-109 -40 -118 -46
-196 -123 -46 -44 -83 -85 -83 -91 0 -7 71 -68 159 -138 l158 -127 16 -87 c9
-49 24 -134 34 -190 9 -57 21 -103 25 -103 4 0 23 14 41 30 29 25 43 30 88 30
35 0 59 -6 71 -17 17 -15 19 -15 36 0 30 28 126 23 166 -8 l33 -25 32 187 c18
103 34 190 36 193 2 3 73 61 159 130 107 86 156 131 156 145 0 35 -167 145
-303 198 -64 26 -123 47 -130 46 -6 0 -50 -11 -97 -25z m-225 -98 c31 -13 35
-19 35 -54 0 -29 -7 -44 -27 -63 -57 -51 -55 -51 -150 -39 -136 17 -133 15
-133 54 l0 34 118 40 c64 22 118 41 120 41 1 1 18 -6 37 -13z m443 -30 l112
-38 0 -34 c0 -39 3 -37 -133 -54 -95 -12 -93 -12 -149 39 -21 19 -28 34 -28
63 0 34 4 41 33 53 17 8 37 13 42 11 6 -2 61 -20 123 -40z m-227 -359 l66
-162 -68 -3 c-38 -2 -100 -2 -138 0 l-69 3 67 162 c36 90 68 163 71 163 3 0
35 -73 71 -163z"/>
<path d="M2213 13702 c-57 -20 -103 -41 -103 -47 0 -7 38 -16 93 -22 90 -11
93 -11 125 13 37 29 43 67 13 84 -11 5 -21 10 -23 9 -2 0 -49 -17 -105 -37z"/>
<path d="M2648 13729 c-29 -16 -22 -55 15 -83 31 -24 34 -24 125 -13 54 6 92
15 92 22 0 8 -114 53 -205 81 -5 2 -18 -1 -27 -7z"/>
<path d="M2458 13357 c-21 -50 -40 -100 -44 -109 -6 -16 3 -18 86 -18 83 0 92
2 86 18 -23 64 -82 202 -86 202 -3 0 -22 -42 -42 -93z"/>
<path d="M2962 13446 c-97 -78 -132 -112 -136 -133 -3 -15 -33 -185 -66 -378
-33 -192 -62 -359 -65 -369 -3 -16 -2 -17 9 -5 7 8 67 73 134 145 136 147 120
110 162 374 10 69 37 201 60 294 22 93 39 171 37 173 -3 2 -63 -44 -135 -101z"/>
<path d="M1806 13532 c-2 -4 4 -64 15 -132 10 -69 19 -131 19 -138 0 -12 34
-30 86 -46 21 -6 21 -4 -12 136 -19 79 -36 153 -39 166 -4 17 -13 22 -35 22
-16 0 -31 -4 -34 -8z"/>
<path d="M1913 13525 c4 -11 23 -90 42 -175 20 -85 39 -158 41 -162 2 -4 19
-81 38 -172 l33 -165 89 -101 c49 -56 103 -118 121 -138 18 -21 32 -34 33 -30
0 7 -117 690 -125 724 -4 18 -97 98 -264 228 -11 9 -13 7 -8 -9z"/>
<path d="M7550 13518 c0 -27 38 -269 42 -273 2 -1 32 -12 68 -24 36 -12 70
-25 76 -29 6 -4 48 -117 94 -252 l82 -245 8 -173 c5 -96 11 -176 13 -179 3 -3
45 -6 94 -6 l88 -2 9 58 8 57 39 0 c21 0 40 4 43 9 11 16 35 216 27 221 -4 3
-88 58 -187 123 l-179 117 -115 310 -114 310 -48 0 c-43 0 -48 -2 -48 -22z"/>
<path d="M3135 13518 c-2 -7 -19 -80 -38 -161 -24 -103 -31 -147 -22 -143 7 2
31 10 54 17 34 10 42 17 46 43 5 29 35 246 35 253 0 10 -71 1 -75 -9z"/>
<path d="M8850 13508 c-5 -13 -44 -149 -86 -303 -53 -193 -82 -285 -95 -297
-11 -9 -96 -63 -189 -120 -135 -82 -170 -107 -170 -124 0 -18 17 -112 36 -201
3 -17 11 -23 32 -23 25 0 30 -6 46 -50 l18 -50 107 0 108 0 7 196 c6 182 9
203 40 307 18 62 46 163 62 225 l29 113 60 32 60 32 21 143 21 142 -49 0 c-41
0 -50 -4 -58 -22z"/>
<path d="M2346 12971 l-28 -29 20 -20 c34 -34 265 -43 323 -12 27 15 34 48 13
71 -22 24 -115 27 -134 4 -7 -8 -20 -15 -30 -15 -10 0 -23 7 -30 15 -8 9 -30
15 -59 15 -39 0 -52 -5 -75 -29z"/>
<path d="M2300 12894 c0 -10 14 -93 30 -182 16 -90 26 -170 23 -178 -4 -11 20
-12 144 -7 81 3 149 6 150 7 4 3 63 345 63 362 0 16 -1 16 -18 1 -52 -47 -322
-48 -373 -1 -18 16 -19 16 -19 -2z"/>
<path d="M2076 12654 l-16 -47 66 -226 c36 -124 69 -231 73 -237 9 -17 271
-226 271 -217 0 4 -26 98 -57 208 l-57 200 -124 177 c-68 98 -127 180 -132
183 -4 3 -15 -16 -24 -41z"/>
<path d="M2867 12668 c-13 -18 -71 -100 -129 -183 l-104 -150 -57 -200 c-31
-110 -57 -204 -57 -208 0 -9 262 200 271 217 4 6 36 113 73 237 l66 227 -16
46 c-9 25 -17 46 -19 46 -2 0 -15 -15 -28 -32z"/>
<path d="M7766 12600 c-26 -43 -53 -83 -59 -88 -7 -5 -163 -60 -347 -122 -184
-62 -336 -114 -338 -115 -1 -1 174 -299 390 -661 l392 -659 138 -385 c77 -211
144 -391 149 -400 5 -9 7 32 4 110 -3 69 -10 463 -15 875 -6 413 -13 837 -16
944 l-6 193 -120 -7 -120 -7 3 201 c2 111 2 201 -1 201 -3 0 -27 -36 -54 -80z"/>
<path d="M8723 12467 c4 -209 4 -209 -17 -203 -25 6 -215 10 -220 5 -5 -5 -39
-2057 -34 -2093 2 -20 43 84 142 360 l139 389 394 664 c274 460 391 666 383
671 -7 4 -162 59 -345 121 l-334 114 -35 60 c-20 33 -45 74 -57 90 l-21 30 5
-208z"/>
<path d="M1655 12370 c-170 -65 -317 -122 -325 -127 -11 -7 0 -16 43 -36 l56
-26 278 155 c153 84 274 154 268 153 -5 0 -149 -54 -320 -119z"/>
<path d="M3010 12488 c3 -3 127 -73 277 -157 l272 -152 58 30 58 29 -30 12
c-37 15 -593 226 -620 236 -11 4 -18 5 -15 2z"/>
<path d="M2980 12427 c0 -8 -50 -239 -56 -259 -4 -14 22 -23 170 -58 l175 -42
112 39 112 40 -214 118 c-118 65 -233 129 -256 142 -24 14 -43 23 -43 20z"/>
<path d="M1750 12289 c-129 -72 -238 -134 -243 -138 -4 -4 44 -24 105 -45
l113 -38 164 40 c90 23 166 43 169 46 3 4 -2 41 -11 84 -9 42 -22 101 -28 130
-6 28 -16 52 -22 51 -7 0 -118 -59 -247 -130z"/>
<path d="M8166 12368 c-3 -13 -9 -43 -14 -68 -6 -32 57 -3306 77 -4023 1 -15
8 -18 39 -15 l37 3 7 135 c4 74 28 971 54 1993 l48 1858 -23 69 -22 70 -99 0
c-95 0 -100 -1 -104 -22z"/>
<path d="M1095 12069 c-223 -155 -213 -146 -311 -271 -76 -97 -96 -131 -140
-239 l-52 -126 7 -292 6 -292 102 133 103 133 0 211 c0 176 3 214 15 224 8 7
136 137 285 290 l270 277 -59 32 c-32 17 -60 31 -62 31 -2 0 -76 -50 -164
-111z"/>
<path d="M3666 12149 l-59 -31 74 -76 c41 -43 171 -175 288 -295 l214 -219 -7
-201 -6 -202 100 -130 c55 -71 105 -131 110 -133 6 -2 10 104 10 290 l-1 293
-48 118 c-40 101 -61 136 -139 237 -92 118 -93 119 -281 249 -104 72 -191 131
-193 131 -2 -1 -30 -15 -62 -31z"/>
<path d="M6787 12076 c-83 -62 -189 -153 -266 -230 l-128 -128 -63 -160 c-57
-147 -65 -176 -91 -347 -16 -102 -28 -192 -27 -199 2 -7 60 26 148 85 127 86
171 109 358 187 117 49 214 87 216 85 1 -2 67 -123 145 -269 l142 -265 89
-430 88 -430 9 -465 8 -465 319 -87 c176 -48 321 -87 322 -85 2 1 -1 284 -7
627 l-9 625 -153 385 -153 386 -394 642 c-217 353 -399 641 -405 641 -5 0 -72
-47 -148 -103z"/>
<path d="M9206 11525 l-396 -644 -154 -389 -154 -388 -7 -622 c-7 -529 -6
-622 6 -622 20 1 618 166 625 173 3 3 8 207 11 454 l4 448 90 440 90 440 146
271 146 272 81 -35 c45 -19 142 -60 216 -90 126 -53 143 -63 253 -155 l117
-99 0 197 0 196 -66 167 -65 166 -122 123 c-78 78 -173 160 -261 225 -77 56
-145 105 -151 109 -8 5 -141 -201 -409 -637z"/>
<path d="M1398 12081 c-8 -12 -125 -137 -261 -280 l-246 -259 -6 -174 c-3 -95
-8 -203 -10 -240 -3 -38 -2 -68 2 -68 5 0 45 65 91 144 45 79 88 149 95 154 7
5 84 40 172 77 88 38 165 73 172 79 20 20 244 439 240 451 -4 8 -187 115 -228
133 -4 2 -14 -6 -21 -17z"/>
<path d="M3448 12033 l-118 -67 60 -110 c33 -61 88 -164 123 -228 l62 -117
175 -74 175 -75 90 -153 c79 -134 90 -149 94 -123 1 16 0 125 -4 241 l-7 213
-192 202 c-105 112 -223 237 -261 279 -39 43 -72 77 -75 77 -3 1 -58 -29 -122
-65z"/>
<path d="M1650 11649 l-135 -241 -148 -74 c-81 -41 -145 -79 -142 -84 3 -5 44
-39 90 -75 64 -50 86 -74 96 -103 6 -20 38 -114 71 -208 l59 -170 166 -69 167
-68 259 129 c142 71 261 132 263 136 4 6 -124 1020 -129 1024 -2 2 -456 44
-472 44 -6 0 -71 -108 -145 -241z"/>
<path d="M2930 11868 c-113 -11 -206 -21 -207 -22 -5 -5 -133 -1018 -129
-1024 2 -4 121 -65 263 -136 l259 -129 167 68 166 69 72 208 72 209 83 64 c46
36 86 70 89 75 3 5 -61 43 -142 84 l-148 74 -135 241 -135 241 -35 -1 c-19 -1
-127 -10 -240 -21z"/>
<path d="M6664 11198 l-172 -70 -144 -138 -144 -138 -43 -142 -43 -142 22
-336 c12 -185 22 -337 23 -338 1 -1 139 90 307 203 168 112 311 208 318 212 7
4 29 58 47 119 33 109 38 117 135 242 55 71 100 133 100 139 0 22 -214 461
-224 460 -6 0 -88 -32 -182 -71z"/>
<path d="M1046 11115 l-128 -135 -179 -537 c-165 -494 -179 -543 -177 -599 l3
-61 132 96 c73 53 194 135 270 182 l138 86 118 389 117 389 -77 162 c-43 89
-81 162 -84 162 -3 1 -63 -60 -133 -134z"/>
<path d="M3731 11090 l-80 -165 117 -389 117 -389 50 -30 c95 -57 330 -215
410 -275 l80 -61 3 66 c3 61 -7 95 -174 597 l-178 532 -132 140 -133 139 -80
-165z"/>
<path d="M9567 11019 c-59 -126 -107 -234 -107 -240 0 -6 43 -80 95 -164 67
-107 104 -178 125 -241 l31 -89 325 -208 c180 -115 328 -206 330 -204 3 3 14
154 26 337 l20 333 -43 143 -43 143 -147 138 -146 138 -149 59 c-82 33 -163
65 -180 72 l-30 13 -107 -230z"/>
<path d="M725 10933 c-49 -59 -94 -112 -98 -119 -4 -8 -19 -163 -32 -346 -13
-183 -27 -355 -29 -382 -3 -27 -3 -47 -1 -44 7 7 256 981 253 989 -2 4 -43
-40 -93 -98z"/>
<path d="M4170 11035 c0 -14 251 -990 257 -995 2 -3 2 22 -2 55 -3 33 -17 207
-30 387 l-24 327 -92 108 c-113 133 -109 129 -109 118z"/>
<path d="M2190 10573 c-129 -59 -236 -107 -238 -108 -3 -2 30 -359 34 -363 1
-2 101 46 222 108 l219 112 7 90 c8 123 8 268 -1 268 -5 -1 -114 -49 -243
-107z"/>
<path d="M2550 10592 c0 -49 3 -130 6 -180 l7 -90 219 -112 c121 -62 221 -110
222 -108 6 6 35 352 31 359 -5 6 -469 219 -480 219 -3 0 -5 -40 -5 -88z"/>
<path d="M1439 10573 c10 -27 43 -114 72 -195 30 -82 59 -148 64 -148 6 0 62
52 125 115 l114 114 -34 15 c-19 8 -106 44 -194 80 -87 36 -160 66 -162 66 -2
0 5 -21 15 -47z"/>
<path d="M3390 10549 c-91 -38 -176 -74 -189 -80 -24 -10 -22 -13 90 -125 62
-63 118 -114 124 -114 5 0 34 66 64 148 29 81 62 168 72 195 10 26 15 47 11
46 -4 0 -81 -32 -172 -70z"/>
<path d="M1740 10282 c-47 -41 -86 -77 -87 -80 -2 -6 158 -99 189 -111 10 -3
3 155 -11 230 l-6 36 -85 -75z"/>
<path d="M3157 10312 c-15 -119 -20 -225 -10 -221 32 12 192 105 190 111 -1 3
-41 40 -88 81 l-87 76 -5 -47z"/>
<path d="M494 10245 c-23 -41 -164 -374 -164 -387 0 -11 35 -171 75 -347 4
-13 8 -21 10 -19 3 3 25 71 50 153 l45 148 -2 236 c-2 181 -6 231 -14 216z"/>
<path d="M4460 10021 l0 -244 36 -121 c58 -195 51 -196 99 17 l43 189 -79 185
c-43 102 -83 192 -89 201 -6 11 -9 -65 -10 -227z"/>
<path d="M6461 10026 l-284 -202 -44 -89 c-36 -71 -51 -117 -74 -232 -16 -79
-40 -190 -54 -248 l-24 -104 24 -552 c13 -304 26 -553 27 -554 2 -1 52 -28
111 -60 l109 -58 81 12 c45 6 84 14 88 19 4 4 71 277 149 607 l140 600 -32
373 -32 373 52 156 c28 86 51 158 49 159 -1 1 -130 -89 -286 -200z"/>
<path d="M9730 10196 c0 -3 34 -70 75 -148 58 -110 75 -151 75 -182 0 -23 -13
-194 -29 -381 l-29 -340 139 -590 c77 -324 143 -599 148 -611 7 -17 24 -23 91
-32 l82 -12 114 61 c102 54 114 63 114 87 0 15 9 263 21 552 l21 525 -45 205
c-25 113 -49 223 -53 245 -4 22 -28 81 -53 132 l-46 92 -300 194 c-344 222
-325 210 -325 203z"/>
<path d="M1573 10158 c3 -13 15 -84 27 -159 l22 -135 127 -83 c110 -72 126
-79 129 -62 3 18 -35 303 -41 306 -72 46 -256 155 -262 155 -4 0 -5 -10 -2
-22z"/>
<path d="M2220 10096 l-185 -82 -3 -65 c-1 -35 1 -94 5 -130 l8 -66 174 38
c96 21 178 42 182 46 11 12 23 343 13 342 -5 0 -92 -38 -194 -83z"/>
<path d="M2573 10013 c5 -93 12 -171 16 -176 4 -4 86 -25 182 -46 l174 -38 8
71 c4 39 6 98 5 130 l-3 60 -189 83 c-103 46 -191 83 -195 83 -3 0 -2 -75 2
-167z"/>
<path d="M3280 10103 c-69 -42 -126 -77 -127 -78 -2 -1 -13 -75 -26 -164 -20
-137 -21 -161 -9 -156 8 3 68 40 133 82 l117 77 22 141 c12 77 24 148 26 158
3 9 2 17 -3 17 -4 0 -64 -35 -133 -77z"/>
<path d="M860 9895 c-192 -144 -221 -169 -217 -188 3 -12 15 -71 27 -132 12
-60 23 -111 25 -113 8 -8 299 417 342 501 29 53 50 97 49 97 -2 0 -103 -74
-226 -165z"/>
<path d="M3910 10055 c0 -3 20 -45 45 -94 38 -76 333 -506 341 -498 3 2 54
255 54 264 0 2 -99 77 -220 168 -121 91 -220 163 -220 160z"/>
<path d="M1640 9640 l0 -139 126 -102 c69 -55 128 -98 131 -95 6 5 -13 257
-22 302 -3 13 -47 50 -114 97 -60 43 -112 77 -115 77 -3 0 -6 -63 -6 -140z"/>
<path d="M3231 9705 c-58 -41 -108 -80 -112 -87 -9 -17 -33 -307 -26 -314 3
-4 62 40 131 96 l126 102 0 139 c0 76 -3 139 -7 139 -5 -1 -55 -34 -112 -75z"/>
<path d="M836 9564 l-118 -177 -98 -781 c-55 -429 -101 -794 -103 -809 l-4
-28 91 3 90 3 148 625 149 625 -16 354 c-8 195 -17 356 -18 358 -2 2 -57 -76
-121 -173z"/>
<path d="M3991 9422 c-7 -174 -12 -339 -12 -367 0 -30 57 -292 145 -662 80
-337 146 -615 146 -618 0 -3 41 -5 91 -5 l92 0 -6 38 c-3 20 -49 384 -102 807
l-97 770 -116 173 c-64 96 -120 175 -123 177 -3 2 -11 -139 -18 -313z"/>
<path d="M2225 9675 l-170 -41 -3 -160 -2 -159 172 -46 173 -46 6 241 c3 133
3 244 0 247 -3 3 -82 -13 -176 -36z"/>
<path d="M2587 9473 c3 -131 5 -241 6 -244 1 -4 80 14 175 40 l172 46 -2 159
-3 159 -155 38 c-85 21 -164 38 -176 39 -21 0 -21 -1 -17 -237z"/>
<path d="M421 9317 l-103 -372 18 -532 18 -533 43 -16 c24 -9 45 -15 47 -13 2
2 43 326 91 719 l88 715 -43 195 c-24 107 -46 198 -49 202 -4 4 -53 -160 -110
-365z"/>
<path d="M4388 9489 l-46 -204 87 -712 c48 -392 90 -715 93 -718 5 -6 68 13
81 25 4 3 16 245 26 536 l18 529 -98 355 c-54 195 -102 364 -107 374 -6 13
-22 -41 -54 -185z"/>
<path d="M1607 9293 c-3 -21 -9 -84 -13 -140 l-7 -103 -102 -191 -103 -192
106 -146 c58 -80 129 -178 157 -216 l52 -71 78 -12 c43 -7 80 -11 82 -8 2 2
17 140 33 307 27 279 29 316 19 449 -6 80 -14 148 -17 151 -4 3 -63 48 -132
99 -69 51 -130 97 -136 102 -8 6 -13 -4 -17 -29z"/>
<path d="M3234 9224 c-76 -58 -140 -107 -141 -107 -1 -1 -6 -67 -12 -147 -10
-133 -8 -170 19 -449 16 -167 31 -305 33 -307 2 -3 39 1 82 8 l78 12 52 71
c28 38 99 136 157 216 l106 146 -100 184 -100 184 -14 144 c-7 79 -15 145 -17
147 -2 3 -66 -44 -143 -102z"/>
<path d="M2016 9128 c-11 -155 -38 -1017 -32 -1027 4 -5 112 -141 241 -301
170 -211 235 -285 235 -268 0 12 -19 196 -42 408 -38 353 -42 415 -47 745 l-6
360 -165 82 c-91 45 -168 82 -172 82 -3 1 -9 -36 -12 -81z"/>
<path d="M2790 9127 l-165 -82 -6 -360 c-5 -330 -9 -392 -47 -745 -23 -211
-42 -395 -42 -408 0 -21 119 122 472 565 6 7 3 184 -6 470 -18 512 -25 643
-34 643 -4 -1 -81 -38 -172 -83z"/>
<path d="M7273 8981 c-4 -9 -57 -148 -120 -310 -62 -162 -111 -296 -109 -298
2 -2 196 -52 432 -112 l429 -108 184 -97 184 -96 191 98 191 99 367 104 c203
57 368 109 368 114 0 10 -196 561 -205 575 -3 4 -80 -17 -172 -47 -93 -30
-244 -77 -338 -104 -93 -28 -200 -59 -237 -70 l-68 -20 0 -107 c0 -59 -3 -164
-7 -234 l-6 -128 -87 0 -87 0 -10 231 c-6 126 -13 232 -15 234 -2 3 -201 70
-442 149 -377 124 -438 142 -443 127z"/>
<path d="M1368 8395 c-15 -44 -79 -241 -142 -438 l-115 -358 45 -472 c25 -260
47 -483 51 -497 4 -15 47 220 109 585 l103 610 -10 305 c-5 168 -11 314 -12
325 -2 11 -15 -16 -29 -60z"/>
<path d="M3590 8414 c0 -32 -5 -176 -10 -319 l-11 -260 104 -615 c62 -364 107
-605 110 -590 3 14 26 237 51 497 l45 472 -139 431 c-76 238 -141 435 -144
438 -3 3 -6 -21 -6 -54z"/>
<path d="M1510 8051 l0 -323 239 -476 238 -477 139 -435 c160 -500 152 -496
131 -75 l-14 260 -357 915 c-197 503 -362 919 -367 925 -5 5 -9 -118 -9 -314z"/>
<path d="M3459 8340 c-10 -19 -173 -435 -365 -925 l-347 -890 -14 -255 c-22
-426 -29 -430 131 71 l139 434 238 477 239 478 -2 322 c-3 309 -4 321 -19 288z"/>
<path d="M6971 8182 l-72 -147 -29 -222 -30 -221 75 -483 c41 -265 77 -484 78
-486 2 -2 101 -21 220 -43 l216 -40 343 150 c189 82 350 150 358 150 8 0 45
-13 82 -29 l66 -28 74 28 c40 16 78 29 85 29 6 0 155 -58 331 -130 l318 -130
218 13 c140 9 220 17 225 25 4 6 35 186 69 399 l62 388 -54 270 c-49 245 -60
286 -122 447 -38 98 -74 178 -81 178 -7 0 -169 -45 -360 -99 l-348 -99 -214
-136 -213 -137 -178 104 -177 105 -429 146 c-236 80 -431 146 -435 146 -3 0
-38 -66 -78 -148z"/>
<path d="M1723 8093 c3 -5 75 -190 161 -413 87 -222 159 -406 162 -409 8 -8
224 213 224 229 -1 29 -26 60 -247 302 -280 308 -271 298 -289 298 -8 0 -13
-3 -11 -7z"/>
<path d="M3234 8092 c-9 -6 -358 -388 -466 -510 -67 -75 -66 -79 58 -203 60
-60 112 -109 115 -109 4 0 18 30 32 68 14 37 86 223 160 415 74 191 130 347
123 347 -6 0 -16 -4 -22 -8z"/>
<path d="M5956 7822 l-88 -167 -59 -250 c-33 -137 -62 -258 -65 -267 -5 -17
39 -48 69 -48 9 0 25 50 51 163 21 89 40 165 43 169 2 4 19 0 38 -9 42 -20 42
-14 15 -227 -11 -88 -20 -165 -20 -172 0 -18 90 -51 99 -36 4 6 17 87 30 179
29 220 24 204 69 189 l37 -13 0 -59 c0 -32 -4 -131 -9 -219 l-8 -160 58 -22
c32 -13 60 -20 63 -18 5 5 29 326 30 403 1 41 2 42 35 42 40 0 38 5 56 -225 6
-77 13 -150 16 -163 4 -22 30 -38 90 -56 l20 -6 -4 358 -5 358 26 17 26 17
108 -129 c59 -71 110 -130 113 -130 3 0 15 13 28 30 l24 29 -60 157 -59 158
-154 94 -154 93 -121 -6 -121 -7 -61 51 c-33 27 -62 50 -63 50 -2 0 -44 -76
-93 -168z"/>
<path d="M10420 7911 l-55 -48 -120 6 -119 7 -154 -91 -154 -91 -59 -155 c-32
-85 -59 -158 -59 -163 0 -4 11 -21 24 -36 l24 -29 108 130 c59 71 111 129 114
129 3 0 16 -7 29 -16 l23 -17 -7 -353 c-9 -396 -14 -369 65 -338 46 19 45 12
60 224 15 202 16 210 43 210 12 0 27 -4 33 -8 7 -4 16 -87 23 -212 7 -113 15
-212 17 -222 4 -15 10 -14 62 7 l57 23 0 69 c0 37 -4 136 -9 220 l-8 151 38
11 c21 6 40 9 41 7 2 -2 17 -87 32 -190 15 -102 30 -188 32 -191 4 -4 81 21
97 31 3 2 -36 337 -44 372 -4 19 2 25 32 38 24 10 39 12 43 5 4 -6 24 -82 46
-171 43 -174 39 -169 101 -136 21 11 21 12 -42 276 l-63 265 -88 164 c-48 91
-92 166 -98 167 -5 2 -35 -18 -65 -45z"/>
<path d="M292 7753 c-156 -271 -148 -252 -222 -537 l-68 -265 40 -16 c22 -9
41 -15 43 -13 1 2 21 75 44 163 24 88 47 164 51 169 10 10 70 -24 70 -40 0 -7
-11 -89 -25 -184 -14 -95 -25 -178 -25 -185 0 -14 86 -52 96 -43 3 3 19 88 36
189 17 101 32 186 34 188 2 2 22 -1 45 -8 40 -12 40 -13 35 -49 -3 -20 -10
-102 -16 -182 -6 -80 -12 -161 -15 -181 -5 -35 -4 -36 58 -61 41 -17 63 -22
64 -14 2 6 12 105 22 219 11 115 21 210 23 212 2 1 17 6 34 9 l31 7 12 -208
c7 -114 16 -211 19 -214 11 -10 94 -40 98 -36 2 2 7 163 11 358 5 306 8 356
22 366 9 7 21 13 27 13 7 0 59 -58 117 -129 l104 -130 27 28 27 28 -58 163
-58 163 -148 93 -148 94 -126 0 -125 0 -58 50 -59 51 -39 -68z"/>
<path d="M4575 7771 l-58 -51 -125 0 -124 0 -147 -91 c-80 -51 -147 -92 -148
-94 -6 -4 -113 -310 -113 -320 1 -5 11 -23 24 -38 l23 -29 104 131 c57 72 109
131 115 131 5 0 18 -6 28 -13 17 -12 19 -41 24 -370 3 -196 8 -357 13 -357 4
0 28 9 52 19 53 23 51 12 66 270 6 90 11 164 13 166 2 1 17 1 34 -2 l31 -5 17
-201 c9 -111 19 -212 21 -224 l5 -22 58 25 c31 14 59 27 60 29 2 2 -4 99 -13
215 -10 119 -14 215 -9 220 5 4 23 11 41 15 38 8 34 21 70 -202 15 -95 32
-173 37 -173 6 0 30 7 53 16 35 14 42 20 38 38 -2 11 -14 89 -25 171 -11 83
-23 161 -26 175 -4 22 1 29 32 43 20 10 38 16 41 14 2 -3 24 -78 48 -167 24
-89 45 -164 48 -166 4 -4 62 20 75 31 2 2 -27 119 -63 261 l-67 259 -86 155
c-47 85 -91 163 -98 173 -11 17 -16 14 -69 -32z"/>
<path d="M1450 7654 c0 -5 -16 -133 -36 -284 l-35 -275 12 -565 12 -565 195
-540 c107 -297 197 -543 201 -548 4 -4 48 235 98 530 l91 538 -49 383 -49 383
-211 467 c-198 436 -229 502 -229 476z"/>
<path d="M3507 7609 c-13 -30 -110 -244 -216 -477 l-192 -423 -48 -377 -49
-377 91 -543 c50 -298 94 -539 98 -535 4 5 95 253 202 553 l195 545 12 560 11
560 -36 280 c-20 154 -38 281 -40 283 -2 3 -15 -20 -28 -49z"/>
<path d="M2194 7278 l-111 -113 100 -258 c55 -141 101 -256 102 -255 2 2 17
144 36 317 32 311 32 314 14 367 -10 30 -21 54 -24 54 -4 0 -56 -51 -117 -112z"/>
<path d="M2655 7336 c-18 -53 -18 -56 14 -367 19 -173 34 -315 35 -316 2 -2
48 114 103 256 l100 259 -111 111 c-61 61 -114 111 -117 111 -3 0 -14 -24 -24
-54z"/>
<path d="M7791 6629 c-194 -88 -361 -159 -370 -159 -9 0 -112 20 -230 44
l-213 44 5 -46 c4 -26 16 -153 28 -282 l21 -235 193 -655 c185 -627 194 -661
205 -785 11 -123 79 -448 97 -466 9 -8 273 -53 277 -47 1 1 53 119 114 261
l111 258 -38 109 -39 110 157 477 156 478 -8 505 c-4 277 -9 505 -10 506 -1 1
-24 11 -52 22 l-50 19 -354 -158z"/>
<path d="M8364 6770 l-42 -18 -6 -149 c-3 -81 -8 -310 -12 -508 l-6 -360 157
-478 156 -477 -37 -113 -37 -112 108 -250 c60 -137 112 -254 116 -259 4 -4 69
3 145 16 l137 24 38 159 c22 93 45 222 54 308 14 144 20 166 205 789 l190 640
0 289 0 289 -32 -1 c-18 0 -130 -8 -248 -18 l-215 -17 -310 133 c-170 73 -312
133 -315 132 -3 0 -24 -9 -46 -19z"/>
<path d="M3672 6267 l-11 -373 -186 -510 c-102 -280 -186 -516 -187 -524 -1
-20 103 -290 112 -290 11 0 370 1282 370 1320 0 44 -77 740 -82 746 -2 2 -9
-164 -16 -369z"/>
<path d="M1301 6630 c-1 -3 -21 -174 -44 -381 l-43 -376 187 -658 c102 -362
189 -654 192 -649 14 24 110 281 109 294 -1 8 -85 244 -187 525 l-186 509 -13
371 c-7 203 -14 368 -15 365z"/>
<path d="M2030 6229 c1 -13 11 -112 24 -219 l23 -195 -84 -528 c-47 -291 -83
-530 -81 -531 2 -2 47 -26 101 -55 73 -39 97 -48 97 -36 0 9 27 264 60 568
l61 553 -96 229 c-53 126 -98 231 -100 234 -3 2 -5 -7 -5 -20z"/>
<path d="M2857 6020 l-98 -235 61 -554 c33 -304 60 -560 60 -568 0 -9 32 3 98
38 53 29 98 53 100 55 2 1 -34 240 -81 531 l-84 528 23 205 c14 113 23 212 21
220 -1 8 -46 -91 -100 -220z"/>
<path d="M9255 4843 c-42 -125 -49 -155 -65 -318 -16 -158 -24 -197 -63 -318
l-46 -139 73 7 72 7 19 -151 c10 -83 21 -151 24 -151 7 0 43 1192 36 1198 -1
2 -24 -59 -50 -135z"/>
<path d="M7261 4880 c-1 -118 29 -1113 33 -1117 2 -2 11 56 20 129 9 73 19
146 22 161 l6 29 69 -7 c38 -4 69 -5 69 -3 0 2 -21 69 -46 149 -41 128 -47
163 -61 312 -14 157 -18 177 -63 305 l-49 137 0 -95z"/>
<path d="M1437 4553 c-4 -98 -9 -313 -13 -478 -3 -165 -7 -311 -10 -325 -9
-53 14 7 46 115 18 61 34 111 35 113 2 2 22 -6 45 -18 23 -12 44 -19 47 -16 5
4 -135 777 -141 784 -2 1 -6 -78 -9 -175z"/>
<path d="M3540 4724 c0 -5 -32 -181 -71 -392 -40 -210 -69 -385 -66 -388 3 -3
24 4 47 16 23 12 43 20 45 18 1 -2 18 -55 36 -118 l34 -115 3 55 c5 67 -18
923 -24 929 -2 2 -4 0 -4 -5z"/>
<path d="M7961 4254 c-51 -129 -92 -236 -90 -238 2 -2 26 -11 52 -21 26 -10
51 -25 56 -34 4 -9 36 -129 72 -268 35 -139 65 -251 66 -249 2 1 -16 137 -39
302 l-42 299 12 219 c7 121 11 220 10 222 -2 1 -45 -103 -97 -232z"/>
<path d="M8506 4443 c27 -357 26 -370 -16 -671 -22 -156 -40 -291 -39 -300 0
-9 31 100 68 243 l68 260 51 19 c29 10 52 24 52 30 0 12 -176 455 -183 463 -2
2 -3 -18 -1 -44z"/>
<path d="M1616 4363 c-2 -10 -8 -50 -11 -90 l-7 -71 69 -86 c64 -80 70 -91 81
-158 37 -215 30 -195 73 -212 22 -9 43 -16 48 -16 5 0 25 89 46 198 21 108 50
231 65 273 l27 75 -23 46 -23 45 -113 6 c-189 11 -226 10 -232 -10z"/>
<path d="M3106 4371 l-78 -6 -23 -45 -23 -45 28 -75 c15 -41 44 -164 65 -272
20 -109 41 -198 46 -198 5 0 26 7 48 16 43 17 36 -3 73 212 11 67 17 78 81
158 l69 86 -7 71 c-10 114 -3 107 -108 105 -51 -1 -127 -4 -171 -7z"/>
<path d="M2180 4238 c-25 -72 -88 -212 -153 -337 l-110 -214 23 -166 c13 -91
26 -174 30 -184 4 -13 28 44 74 175 42 118 95 244 138 325 l68 132 -11 193
c-6 106 -12 194 -13 196 -2 1 -23 -53 -46 -120z"/>
<path d="M2760 4339 c0 -13 -5 -102 -10 -197 l-10 -173 68 -132 c43 -82 95
-206 137 -326 47 -133 71 -188 75 -175 4 11 17 94 29 186 l23 167 -105 203
c-62 119 -125 257 -152 332 -25 72 -48 132 -50 135 -3 2 -5 -7 -5 -20z"/>
<path d="M7367 4013 c-3 -4 -49 -259 -102 -566 l-97 -559 272 -931 c150 -513
275 -937 279 -943 7 -14 252 77 263 98 4 7 30 362 58 788 28 426 62 884 75
1018 l23 243 -100 392 c-55 216 -102 394 -104 396 -2 3 -111 17 -242 32 -130
16 -256 31 -279 34 -23 3 -43 2 -46 -2z"/>
<path d="M8903 3986 c-145 -17 -267 -36 -271 -41 -5 -6 -53 -183 -107 -395
l-98 -385 22 -236 c12 -130 46 -592 76 -1028 29 -436 55 -795 58 -797 2 -3 61
-27 131 -54 105 -40 128 -46 133 -34 3 9 128 433 278 944 l272 928 -93 534
c-51 293 -96 548 -99 566 -4 22 -11 32 -23 31 -9 -1 -135 -15 -279 -33z"/>
<path d="M1497 3813 c-3 -10 -40 -250 -83 -534 l-78 -516 234 -839 c128 -461
235 -846 237 -854 2 -9 66 -44 141 -80 75 -35 140 -65 144 -67 3 -2 3 11 -2
29 -5 18 -64 238 -130 488 l-121 455 -19 620 -18 620 -146 345 c-81 189 -148
346 -150 348 -3 2 -6 -5 -9 -15z"/>
<path d="M3335 3478 l-150 -353 -17 -615 -16 -615 -115 -430 c-146 -545 -146
-546 -139 -542 4 2 69 32 144 67 75 36 139 71 141 80 2 8 109 393 237 854
l233 839 -78 516 c-43 284 -81 524 -85 534 -4 13 -53 -91 -155 -335z"/>
<path d="M2092 3422 c-13 -39 -45 -208 -72 -376 l-50 -305 -6 -413 -6 -413 67
-385 c37 -212 69 -387 72 -390 3 -3 3 221 -1 497 l-7 501 75 214 74 213 9 217
8 217 -66 233 c-36 128 -67 239 -70 246 -2 8 -15 -18 -27 -56z"/>
<path d="M2811 3269 c-34 -123 -65 -235 -69 -249 -4 -14 -4 -122 1 -240 l8
-215 75 -213 75 -213 -6 -502 c-3 -276 -3 -497 0 -492 2 6 34 181 71 390 l66
380 -6 413 -7 413 -49 308 c-28 169 -61 339 -73 376 l-23 69 -63 -225z"/>
<path d="M7870 1005 l-115 -41 -5 -160 c-5 -133 -9 -168 -27 -211 l-22 -51 19
-67 19 -66 -64 -103 -64 -104 19 -72 c10 -40 22 -76 27 -80 4 -4 46 -17 93
-28 77 -19 96 -20 200 -11 l115 10 62 62 c59 58 63 66 72 127 21 131 13 159
-108 354 l-70 111 -11 160 c-7 88 -15 172 -18 186 l-7 26 -115 -42z m179 -779
c-2 -2 -49 -22 -105 -45 l-100 -42 -80 30 c-52 20 -70 30 -54 31 14 1 77 7
140 14 118 14 207 19 199 12z"/>
<path d="M8570 1027 c0 -12 -7 -98 -15 -190 l-14 -169 -65 -102 c-36 -56 -79
-132 -96 -168 l-31 -65 12 -96 12 -96 61 -60 61 -60 122 -10 c98 -8 132 -7
170 4 27 7 66 18 89 24 l41 11 17 78 18 77 -62 100 -63 99 17 71 c16 66 16 73
-1 115 -12 33 -18 88 -22 209 l-6 163 -122 44 c-120 42 -123 43 -123 21z m140
-813 c85 -8 155 -16 157 -17 1 -2 -31 -15 -72 -30 l-74 -28 -108 45 c-123 51
-120 52 97 30z"/>
<path d="M2050 845 l-155 -63 -67 -83 c-37 -45 -110 -157 -164 -247 l-97 -166
9 -75 9 -75 95 -20 c52 -12 104 -26 115 -32 18 -11 183 -64 197 -64 3 0 3 29
1 64 -5 62 -5 65 16 59 15 -4 26 -21 40 -67 l19 -61 69 -3 70 -3 26 103 c23
92 26 132 33 370 l7 267 -28 80 c-16 45 -31 81 -34 81 -3 -1 -76 -30 -161 -65z"/>
<path d="M2745 829 l-28 -80 7 -267 c6 -205 12 -284 26 -342 10 -41 21 -88 24
-103 7 -28 7 -28 78 -25 l70 3 19 61 c14 46 25 63 40 67 21 6 21 3 16 -59 -2
-35 -2 -64 1 -64 14 0 179 53 197 64 11 6 63 20 115 32 l95 20 9 76 9 75 -88
149 c-99 168 -216 329 -254 349 -24 12 -299 125 -305 125 -1 0 -15 -36 -31
-81z"/>
</g>
</svg>
